<svg fill="none" height="56" viewBox="0 0 56 56" width="56" xmlns="http://www.w3.org/2000/svg"><g fill="#fff"><path d="m27.9944 16.5227c3.7389 0 4.1778.0167 5.6556.0834 1.3667.0611 2.1056.2889 2.6.4834.6556.2556 1.1222.5557 1.6111 1.0447.4889.4889.7945.9557 1.0445 1.6114.1888.4945.4222 1.2336.4833 2.6005.0667 1.4781.0833 1.917.0833 5.6567 0 3.7396-.0166 4.1786-.0833 5.6567-.0611 1.3669-.2889 2.1059-.4833 2.6005-.2556.6557-.5556 1.1224-1.0445 1.6114s-.9555.7946-1.6111 1.0447c-.4944.1889-1.2333.4223-2.6.4834-1.4778.0667-1.9167.0833-5.6556.0833-3.7388 0-4.1777-.0166-5.6555-.0833-1.3667-.0611-2.1056-.289-2.6-.4834-.6556-.2557-1.1222-.5557-1.6111-1.0447s-.7945-.9557-1.0445-1.6114c-.1889-.4946-.4222-1.2336-.4833-2.6005-.0667-1.4781-.0833-1.9171-.0833-5.6567 0-3.7397.0166-4.1786.0833-5.6567.0611-1.3669.2889-2.106.4833-2.6005.2556-.6557.5556-1.1225 1.0445-1.6114.4889-.489.9555-.7946 1.6111-1.0447.4944-.1889 1.2333-.4223 2.6-.4834 1.4778-.0723 1.9167-.0834 5.6555-.0834zm0-2.5227c-3.8 0-4.2777.0167-5.7722.0833-1.4889.0667-2.5055.3057-3.3944.6502-.9222.3556-1.7.839-2.4778 1.617-.7778.7779-1.2556 1.5614-1.6167 2.4782-.3444.8891-.5833 1.906-.65 3.4007-.0666 1.4892-.0833 1.9671-.0833 5.7678 0 3.8008.0167 4.2786.0833 5.7734.0667 1.4892.3056 2.506.65 3.4007.3556.9224.8389 1.7003 1.6167 2.4782.7778.778 1.5611 1.2558 2.4778 1.617.8889.3445 1.9055.5835 3.4.6502 1.4944.0666 1.9666.0833 5.7722.0833s4.2778-.0167 5.7722-.0833c1.4889-.0667 2.5056-.3057 3.4-.6502.9222-.3556 1.7-.839 2.4778-1.617.7778-.7779 1.2556-1.5614 1.6167-2.4782.3444-.8891.5833-1.906.65-3.4007.0666-1.4948.0833-1.9671.0833-5.7734s-.0167-4.2786-.0833-5.7733c-.0667-1.4892-.3056-2.5061-.65-3.4007-.3556-.9224-.8389-1.7004-1.6167-2.4783s-1.5611-1.2558-2.4778-1.617c-.8889-.3445-1.9055-.5834-3.4-.6501-1.5-.0611-1.9778-.0778-5.7778-.0778z"/><path d="m27.9945 20.8069c-3.9667 0-7.1889 3.2173-7.1889 7.1903s3.2222 7.1903 7.1889 7.1903c3.9666 0 7.1888-3.2228 7.1888-7.1903 0-3.9674-3.2222-7.1903-7.1888-7.1903zm0 11.8579c-2.5778 0-4.6667-2.0893-4.6667-4.6676s2.0889-4.6676 4.6667-4.6676c2.5777 0 4.6666 2.0893 4.6666 4.6676s-2.0889 4.6676-4.6666 4.6676z"/><path d="m35.4666 22.2016c.9266 0 1.6778-.7513 1.6778-1.6781s-.7512-1.6781-1.6778-1.6781-1.6777.7513-1.6777 1.6781.7511 1.6781 1.6777 1.6781z"/></g><circle cx="28" cy="28" r="27.5" stroke="#fff"/></svg>