<svg fill="none" height="56" viewBox="0 0 56 56" width="56" xmlns="http://www.w3.org/2000/svg"><path d="m21.0698 40h-5.6512v-18.07h5.5465v18.07zm-2.8256-20.5914c-1.7791 0-3.2442-1.4709-3.2442-3.2568 0-1.786 1.4651-3.1518 3.2442-3.1518s3.2442 1.4708 3.2442 3.2568-1.4651 3.1518-3.2442 3.1518zm23.7558 20.5914h-5.5465v-8.8249c0-2.1012 0-4.8327-2.9302-4.8327-2.9303 0-3.3489 2.3113-3.3489 4.6226v8.9299h-5.6511v-17.9649h5.3372v2.4163h.1046c.7326-1.4708 2.6163-2.9416 5.3372-2.9416 5.6512 0 6.6977 3.7821 6.6977 8.6148z" fill="#fff"/><circle cx="28" cy="28" r="27.5" stroke="#fff"/></svg>
