<svg fill="none" height="56" viewBox="0 0 56 56" width="56" xmlns="http://www.w3.org/2000/svg"><path d="m28.0098 13c-3.4981.0012-6.8861 1.2225-9.5789 3.4532-2.6928 2.2306-4.5215 5.3305-5.1703 8.7645-.6489 3.434-.0772 6.9866 1.6164 10.0444s4.4027 5.4289 7.6597 6.7039c-.1317-1.1865-.2461-3.0074.0517-4.3033.2732-1.1692 1.7612-7.4496 1.7612-7.4496-.3058-.7021-.4589-1.461-.4492-2.2266 0-2.0902 1.2098-3.6431 2.7162-3.6431 1.2812 0 1.9003.9603 1.9003 2.1123 0 1.2873-.8197 3.2115-1.2431 4.9943-.3532 1.4926.7495 2.7049 2.2239 2.7049 2.6683 0 4.7199-2.8106 4.7199-6.868 0-3.5914-2.5845-6.1021-6.2767-6.1021-4.2719 0-6.7789 3.1968-6.7789 6.5091 0 1.2885.4923 2.6717 1.1175 3.4229.0532.0566.0908.126.1091.2014.0184.0754.0168.1543-.0045.2289-.1144.4734-.3692 1.4927-.4172 1.7005-.0652.2741-.2178.3332-.5021.2004-1.872-.8705-3.0436-3.6037-3.0436-5.8095 0-4.7311 3.446-9.0762 9.9197-9.0762 5.2084 0 9.2563 3.7082 9.2563 8.6631 0 5.164-3.2627 9.3295-7.7905 9.3295-1.5212 0-2.9538-.7893-3.4461-1.7213 0 0-.7532 2.8635-.9353 3.5656-.3385 1.3033-1.2542 2.9361-1.8658 3.9344 2.0639.636 4.241.8197 6.3825.5385 2.1415-.2813 4.197-1.0207 6.0263-2.168 1.8294-1.1473 3.3894-2.6753 4.5736-4.4798 1.1843-1.8046 1.9649-3.8431 2.2886-5.9765.3236-2.1334.1827-4.3115-.4131-6.3856-.5958-2.074-1.6325-3.9952-3.0394-5.6325-1.4068-1.6373-3.1507-2.952-5.1127-3.8546-1.9619-.9025-4.0956-1.3715-6.2555-1.3751z" fill="#fff"/><circle cx="28" cy="28" r="27.5" stroke="#fff"/></svg>