<svg fill="none" height="56" viewBox="0 0 56 56" width="56" xmlns="http://www.w3.org/2000/svg"><path d="m23.4344 41c11.3208 0 17.5128-9.2343 17.5128-17.2423 0-.2623 0-.5234-.018-.7833 1.2046-.8578 2.2444-1.92 3.0708-3.1368-1.1233.4901-2.315.8115-3.5352.9535 1.2849-.7574 2.2465-1.9485 2.706-3.3518-1.2082.7058-2.53 1.2033-3.9084 1.4709-.928-.9715-2.1554-1.6149-3.4922-1.8304-1.3367-.2156-2.7084.0086-3.9027.6379-1.1944.6293-2.1447 1.6286-2.7041 2.8433-.5593 1.2146-.6965 2.5769-.3902 3.8761-2.4471-.1208-4.841-.7469-7.0264-1.8377s-4.1134-2.6218-5.6588-4.4938c-.7871 1.3341-1.0282 2.9133-.6741 4.4163.354 1.5029 1.2765 2.8164 2.5797 3.6732-.9795-.0286-1.9377-.2887-2.7936-.7585v.0768c.0004 1.3991.4923 2.755 1.3923 3.8377.9001 1.0828 2.1528 1.8256 3.5457 2.1027-.9062.2433-1.8569.2789-2.7792.1039.3933 1.2042 1.159 2.2571 2.1901 3.0117 1.031.7546 2.2758 1.173 3.5603 1.1967-2.1795 1.6865-4.8719 2.602-7.644 2.5992-.4897-.0009-.979-.0301-1.4652-.0874 2.8148 1.7784 6.0899 2.7218 9.4344 2.7174" fill="#fff"/><circle cx="28" cy="28" r="27.5" stroke="#fff"/></svg>