<svg fill="none" height="56" viewBox="0 0 56 56" width="56" xmlns="http://www.w3.org/2000/svg"><path d="m41.7104 22.5303s-.2839-2.0576-1.1527-2.9637c-1.1017-1.1896-2.3396-1.1954-2.9046-1.2656-4.0601-.301-10.1474-.301-10.1474-.301h-.0114s-6.0873 0-10.1474.301c-.565.0702-1.8029.076-2.9046 1.2656-.8688.9061-1.1527 2.9637-1.1527 2.9637s-.2896 2.4142-.2896 4.8313v2.2651c0 2.4171.2896 4.8313.2896 4.8313s.2839 2.0577 1.1527 2.9637c1.1045 1.1896 2.5525 1.1516 3.197 1.2773 2.3197.2279 9.8607.301 9.8607.301s6.093-.0088 10.1531-.3127c.5679-.0702 1.8029-.076 2.9046-1.2656.8688-.906 1.1527-2.9637 1.1527-2.9637s.2896-2.4171.2896-4.8313v-2.2651c0-2.4171-.2896-4.8313-.2896-4.8313zm-17.2058 9.8409v-8.3883l7.8363 4.2087z" fill="#fff"/><circle cx="28" cy="28" r="27.5" stroke="#fff"/></svg>